<svg xmlns="http://www.w3.org/2000/svg" viewBox="0 0 32 32"><title>62-Calendar</title><g id="_62-Calendar" data-name="62-Calendar"><rect x="4" y="4" width="2" height="2"/><rect x="26" y="4" width="2" height="2"/><path fill="#6b7280" d="M29,0H3A3,3,0,0,0,0,3V29a3,3,0,0,0,3,3H26a1,1,0,0,0,.71-.29l5-5A1,1,0,0,0,32,26V3A3,3,0,0,0,29,0Zm1,25H27a2,2,0,0,0-2,2v3H3a1,1,0,0,1-1-1V10H30ZM10,8V6H22V8ZM30,8H24V5a1,1,0,0,0-1-1H9A1,1,0,0,0,8,5V8H2V3A1,1,0,0,1,3,2H29a1,1,0,0,1,1,1Z"/><path fill="#6b7280" d="M11,17.41V24h2V15a1,1,0,0,0-1.71-.71l-3,3,1.41,1.41Z"/><path fill="#6b7280" d="M16,21h3v3h2V21h1V19H21V14H19v5H17V14H15v6A1,1,0,0,0,16,21Z"/></g></svg>
